# xmcd
#
# Track frame offsets:
#	150
#	14637
#	31954
#	49523
#	68175
#	89671
#	109799
#	129051
#	133884
#	148277
#	166009
#	187083
#	206244
#
# Disc length: 3025 seconds
# Revision: 0
# Processed by: cddbd v1.5.2PL0 Copyright (c) Steve Scherf et al.
# Submitted via: dBpowerAMP V12.0
#
DISCID=c10bcf0d
DTITLE=Rise to Fall - Restore the Balance
DYEAR=2008
DGENRE=Metal
TTITLE0=Redrum
TTITLE1=Unknown Presence
TTITLE2=Inner Scream
TTITLE3=Rise from Drama
TTITLE4=Prophet of Doom
TTITLE5=Infected Wounds
TTITLE6=Forbidden Lullaby
TTITLE7=When the Instinct...
TTITLE8=kills the Reason
TTITLE9=My Sombre Prospect
TTITLE10=Closing Infinity
TTITLE11=Rise from Drama (Remix)
TTITLE12=RTF Live Medley
EXTD=
EXTT0=
EXTT1=
EXTT2=
EXTT3=
EXTT4=
EXTT5=
EXTT6=
EXTT7=
EXTT8=
EXTT9=
EXTT10=
EXTT11=
EXTT12=
PLAYORDER=
